<svg width="80" height="79" viewBox="0 0 80 79" fill="none" xmlns="http://www.w3.org/2000/svg">
<g clip-path="url(#clip0_53_114)">
<path d="M11.22 79C11.5428 79 11.8583 78.9041 12.1266 78.7246C12.3949 78.545 12.6038 78.2899 12.7269 77.9915C12.8499 77.693 12.8816 77.3648 12.8179 77.0483C12.7542 76.7319 12.598 76.4414 12.369 76.2139C12.14 75.9863 11.8487 75.8319 11.5318 75.7701C11.215 75.7084 10.8869 75.7421 10.5893 75.867C10.2916 75.9919 10.0377 76.2024 9.85983 76.4717C9.68192 76.7411 9.58801 77.0572 9.58999 77.38C9.59263 77.8106 9.76553 78.2226 10.0709 78.5261C10.3763 78.8297 10.7894 79 11.22 79ZM1.62 75.75C1.29762 75.75 0.982468 75.8456 0.714417 76.0247C0.446365 76.2038 0.237434 76.4584 0.114067 76.7562C-0.00930023 77.0541 -0.0415878 77.3818 0.0213089 77.698C0.0842056 78.0142 0.239449 78.3046 0.467407 78.5326C0.695366 78.7606 0.985802 78.9158 1.30199 78.9787C1.61819 79.0416 1.94592 79.0093 2.24377 78.8859C2.54161 78.7626 2.79618 78.5536 2.97529 78.2856C3.1544 78.0175 3.24999 77.7024 3.24999 77.38C3.24999 76.9477 3.07826 76.5331 2.77258 76.2274C2.46689 75.9217 2.0523 75.75 1.62 75.75ZM11.22 70.58C11.5445 70.5799 11.8615 70.4829 12.1306 70.3014C12.3996 70.12 12.6083 69.8624 12.7301 69.5617C12.8519 69.2609 12.8811 68.9306 12.814 68.6132C12.747 68.2957 12.5867 68.0055 12.3537 67.7796C12.1207 67.5538 11.8256 67.4026 11.5062 67.3455C11.1868 67.2883 10.8576 67.3278 10.5608 67.4589C10.264 67.59 10.013 67.8067 9.84006 68.0812C9.66711 68.3558 9.58003 68.6757 9.58999 69C9.60046 69.4244 9.77712 69.8278 10.082 70.1233C10.3868 70.4187 10.7955 70.5828 11.22 70.58ZM1.62 70.58C1.94489 70.5818 2.26292 70.4866 2.53328 70.3063C2.80363 70.1261 3.01397 69.8693 3.13728 69.5687C3.26058 69.2681 3.29124 68.9375 3.22533 68.6193C3.15941 68.3012 2.99991 68.01 2.76731 67.7831C2.53471 67.5563 2.23963 67.4041 1.91994 67.3462C1.60024 67.2882 1.27052 67.3271 0.973099 67.4579C0.675674 67.5887 0.424133 67.8054 0.25074 68.0802C0.0773468 68.3549 -0.00997162 68.6753 -7.62939e-06 69C0.0104294 69.4227 0.185707 69.8245 0.488396 70.1198C0.791084 70.415 1.19719 70.5801 1.62 70.58ZM11.22 62.17C11.5424 62.17 11.8575 62.0744 12.1256 61.8953C12.3936 61.7162 12.6025 61.4616 12.7259 61.1638C12.8493 60.8659 12.8816 60.5382 12.8187 60.222C12.7558 59.9058 12.6005 59.6154 12.3726 59.3874C12.1446 59.1595 11.8542 59.0042 11.538 58.9413C11.2218 58.8784 10.8941 58.9107 10.5962 59.0341C10.2984 59.1575 10.0438 59.3664 9.8647 59.6344C9.68559 59.9025 9.58999 60.2176 9.58999 60.54C9.58999 60.9723 9.76172 61.3869 10.0674 61.6926C10.3731 61.9983 10.7877 62.17 11.22 62.17ZM1.62 62.17C1.94279 62.172 2.25892 62.0781 2.52828 61.9002C2.79765 61.7223 3.00812 61.4684 3.13303 61.1707C3.25793 60.8731 3.29164 60.545 3.22988 60.2282C3.16812 59.9113 3.01367 59.62 2.78612 59.391C2.55856 59.162 2.26814 59.0058 1.95168 58.9421C1.63522 58.8784 1.30698 58.9101 1.00855 59.0332C0.710129 59.1562 0.454956 59.3651 0.275406 59.6334C0.0958557 59.9017 0 60.2172 -7.62939e-06 60.54C-1.52588e-05 60.9706 0.170341 61.3837 0.473869 61.6891C0.777397 61.9945 1.18943 62.1674 1.62 62.17ZM11.22 53.75C11.5428 53.75 11.8583 53.6541 12.1266 53.4746C12.3949 53.295 12.6038 53.0399 12.7269 52.7415C12.8499 52.443 12.8816 52.1148 12.8179 51.7983C12.7542 51.4819 12.598 51.1914 12.369 50.9639C12.14 50.7363 11.8487 50.5819 11.5318 50.5201C11.215 50.4584 10.8869 50.4921 10.5893 50.617C10.2916 50.7419 10.0377 50.9524 9.85983 51.2217C9.68192 51.4911 9.58801 51.8072 9.58999 52.13C9.59263 52.5606 9.76553 52.9726 10.0709 53.2761C10.3763 53.5797 10.7894 53.75 11.22 53.75ZM1.62 53.75C1.94322 53.752 2.25974 53.6578 2.52931 53.4795C2.79889 53.3011 3.00936 53.0467 3.13397 52.7484C3.25858 52.4502 3.2917 52.1216 3.22913 51.8045C3.16655 51.4874 3.01111 51.196 2.78255 50.9675C2.55399 50.7389 2.26263 50.5835 1.94551 50.5209C1.6284 50.4583 1.29984 50.4914 1.00159 50.616C0.703339 50.7406 0.448868 50.9511 0.270523 51.2207C0.0921783 51.4903 -0.00198364 51.8068 -7.62939e-06 52.13C0.00261688 52.5588 0.174133 52.9694 0.477379 53.2726C0.780624 53.5759 1.19115 53.7474 1.62 53.75ZM11.22 45.33C11.5428 45.33 11.8583 45.2341 12.1266 45.0546C12.3949 44.875 12.6038 44.6199 12.7269 44.3214C12.8499 44.023 12.8816 43.6948 12.8179 43.3783C12.7542 43.0619 12.598 42.7714 12.369 42.5439C12.14 42.3163 11.8487 42.1619 11.5318 42.1001C11.215 42.0384 10.8869 42.0721 10.5893 42.197C10.2916 42.3219 10.0377 42.5324 9.85983 42.8017C9.68192 43.0711 9.58801 43.3872 9.58999 43.71C9.58998 43.9236 9.63222 44.1351 9.71426 44.3323C9.7963 44.5295 9.91652 44.7085 10.068 44.8591C10.2195 45.0096 10.3993 45.1288 10.597 45.2096C10.7947 45.2904 11.0064 45.3313 11.22 45.33ZM1.62 45.33C1.94322 45.332 2.25974 45.2378 2.52931 45.0595C2.79889 44.8811 3.00936 44.6267 3.13397 44.3284C3.25858 44.0302 3.2917 43.7016 3.22913 43.3845C3.16655 43.0674 3.01111 42.776 2.78255 42.5475C2.55399 42.3189 2.26263 42.1634 1.94551 42.1009C1.6284 42.0383 1.29984 42.0714 1.00159 42.196C0.703339 42.3206 0.448868 42.5311 0.270523 42.8007C0.0921783 43.0703 -0.00198364 43.3868 -7.62939e-06 43.71C-7.62939e-06 44.1397 0.17067 44.5517 0.47448 44.8555C0.77829 45.1593 1.19035 45.33 1.62 45.33ZM11.22 36.92C11.5424 36.92 11.8575 36.8244 12.1256 36.6453C12.3936 36.4662 12.6025 36.2116 12.7259 35.9138C12.8493 35.6159 12.8816 35.2882 12.8187 34.972C12.7558 34.6558 12.6005 34.3654 12.3726 34.1374C12.1446 33.9095 11.8542 33.7542 11.538 33.6913C11.2218 33.6284 10.8941 33.6607 10.5962 33.7841C10.2984 33.9075 10.0438 34.1164 9.8647 34.3844C9.68559 34.6525 9.58999 34.9676 9.58999 35.29C9.58999 35.7223 9.76172 36.1369 10.0674 36.4426C10.3731 36.7483 10.7877 36.92 11.22 36.92ZM1.62 36.92C1.94279 36.922 2.25892 36.8281 2.52828 36.6502C2.79765 36.4723 3.00812 36.2184 3.13303 35.9207C3.25793 35.6231 3.29164 35.295 3.22988 34.9782C3.16812 34.6613 3.01367 34.37 2.78612 34.141C2.55856 33.912 2.26814 33.7558 1.95168 33.6921C1.63522 33.6284 1.30698 33.6601 1.00855 33.7831C0.710129 33.9062 0.454956 34.1151 0.275406 34.3834C0.0958557 34.6517 0 34.9672 -7.62939e-06 35.29C-1.52588e-05 35.7206 0.170341 36.1337 0.473869 36.4391C0.777397 36.7445 1.18943 36.9174 1.62 36.92ZM11.22 28.5C11.5428 28.5 11.8583 28.4041 12.1266 28.2246C12.3949 28.045 12.6038 27.7899 12.7269 27.4915C12.8499 27.193 12.8816 26.8648 12.8179 26.5483C12.7542 26.2319 12.598 25.9414 12.369 25.7139C12.14 25.4863 11.8487 25.3319 11.5318 25.2701C11.215 25.2084 10.8869 25.2421 10.5893 25.367C10.2916 25.4919 10.0377 25.7024 9.85983 25.9717C9.68192 26.2411 9.58801 26.5572 9.58999 26.88C9.59263 27.3106 9.76553 27.7226 10.0709 28.0261C10.3763 28.3297 10.7894 28.5 11.22 28.5ZM1.62 28.5C1.94322 28.502 2.25974 28.4078 2.52931 28.2295C2.79889 28.0511 3.00936 27.7967 3.13397 27.4984C3.25858 27.2002 3.2917 26.8716 3.22913 26.5545C3.16655 26.2374 3.01111 25.946 2.78255 25.7175C2.55399 25.4889 2.26263 25.3335 1.94551 25.2709C1.6284 25.2083 1.29984 25.2414 1.00159 25.366C0.703339 25.4906 0.448868 25.7011 0.270523 25.9707C0.0921783 26.2403 -0.00198364 26.5568 -7.62939e-06 26.88C0.00261688 27.3088 0.174133 27.7194 0.477379 28.0226C0.780624 28.3259 1.19115 28.4974 1.62 28.5ZM11.22 20.08C11.5428 20.08 11.8583 19.9841 12.1266 19.8046C12.3949 19.625 12.6038 19.3699 12.7269 19.0714C12.8499 18.773 12.8816 18.4448 12.8179 18.1283C12.7542 17.8119 12.598 17.5214 12.369 17.2939C12.14 17.0663 11.8487 16.9119 11.5318 16.8501C11.215 16.7884 10.8869 16.8221 10.5893 16.947C10.2916 17.0719 10.0377 17.2824 9.85983 17.5517C9.68192 17.8211 9.58801 18.1372 9.58999 18.46C9.58998 18.6736 9.63222 18.8851 9.71426 19.0823C9.7963 19.2795 9.91652 19.4585 10.068 19.6091C10.2195 19.7596 10.3993 19.8788 10.597 19.9596C10.7947 20.0404 11.0064 20.0813 11.22 20.08ZM1.62 20.08C1.94322 20.082 2.25974 19.9878 2.52931 19.8095C2.79889 19.6311 3.00936 19.3767 3.13397 19.0784C3.25858 18.7802 3.2917 18.4516 3.22913 18.1345C3.16655 17.8174 3.01111 17.526 2.78255 17.2975C2.55399 17.0689 2.26263 16.9134 1.94551 16.8509C1.6284 16.7883 1.29984 16.8214 1.00159 16.946C0.703339 17.0706 0.448868 17.2811 0.270523 17.5507C0.0921783 17.8203 -0.00198364 18.1368 -7.62939e-06 18.46C-7.62939e-06 18.8897 0.17067 19.3017 0.47448 19.6055C0.77829 19.9093 1.19035 20.08 1.62 20.08ZM78.38 11.67C78.7007 11.6699 79.0142 11.5752 79.2813 11.3978C79.5484 11.2204 79.7573 10.9682 79.8817 10.6727C80.0062 10.3772 80.0407 10.0515 79.981 9.73643C79.9213 9.42139 79.7699 9.13095 79.546 8.90148C79.322 8.67201 79.0353 8.51369 78.7218 8.44636C78.4083 8.37902 78.0819 8.40564 77.7834 8.5229C77.485 8.64017 77.2278 8.84284 77.0439 9.10558C76.8601 9.36832 76.7579 9.67944 76.75 10C76.7447 10.2174 76.7829 10.4337 76.8624 10.6361C76.9419 10.8385 77.0611 11.0229 77.213 11.1785C77.3649 11.3342 77.5464 11.4578 77.7468 11.5422C77.9473 11.6266 78.1625 11.6701 78.38 11.67ZM68.78 11.67C69.1011 11.6719 69.4156 11.5789 69.684 11.4027C69.9524 11.2265 70.1628 10.9749 70.2888 10.6796C70.4148 10.3843 70.4507 10.0583 70.3921 9.74261C70.3336 9.42692 70.183 9.13556 69.9595 8.9051C69.7359 8.67464 69.4493 8.51533 69.1355 8.44717C68.8217 8.37902 68.4948 8.40506 68.1958 8.52201C67.8968 8.63896 67.6389 8.84163 67.4547 9.10457C67.2704 9.36751 67.1679 9.67902 67.16 10C67.1547 10.2166 67.1926 10.432 67.2715 10.6338C67.3504 10.8355 67.4687 11.0195 67.6195 11.175C67.7704 11.3305 67.9507 11.4543 68.1499 11.5393C68.3492 11.6243 68.5634 11.6687 68.78 11.67ZM59.19 11.67C59.5107 11.6699 59.8242 11.5752 60.0913 11.3978C60.3584 11.2204 60.5673 10.9682 60.6917 10.6727C60.8162 10.3772 60.8507 10.0515 60.791 9.73643C60.7313 9.42139 60.5799 9.13095 60.356 8.90148C60.132 8.67201 59.8453 8.51369 59.5318 8.44636C59.2183 8.37902 58.8919 8.40564 58.5934 8.5229C58.295 8.64017 58.0378 8.84284 57.8539 9.10558C57.6701 9.36832 57.5679 9.67944 57.56 10C57.5547 10.2174 57.5929 10.4337 57.6724 10.6361C57.7519 10.8385 57.8711 11.0229 58.023 11.1785C58.1749 11.3342 58.3564 11.4578 58.5568 11.5422C58.7573 11.6266 58.9725 11.6701 59.19 11.67ZM49.59 11.67C49.9122 11.6778 50.2296 11.5899 50.5019 11.4174C50.7742 11.2449 50.9892 10.9955 51.1198 10.7008C51.2503 10.4061 51.2906 10.0793 51.2355 9.76168C51.1803 9.44409 51.0323 9.14998 50.81 8.91653C50.5877 8.68307 50.3012 8.52077 49.9867 8.45012C49.6722 8.37947 49.3438 8.40366 49.0431 8.51962C48.7423 8.63559 48.4827 8.83813 48.297 9.10163C48.1114 9.36514 48.008 9.67776 48 10C47.9947 10.2141 48.0316 10.4271 48.1086 10.6269C48.1857 10.8267 48.3013 11.0094 48.449 11.1644C48.5966 11.3195 48.7734 11.444 48.9692 11.5308C49.165 11.6175 49.3759 11.6648 49.59 11.67ZM40 11.67C40.3211 11.6719 40.6356 11.5789 40.904 11.4027C41.1724 11.2265 41.3828 10.9749 41.5088 10.6796C41.6348 10.3843 41.6707 10.0583 41.6121 9.74261C41.5536 9.42692 41.403 9.13556 41.1795 8.9051C40.9559 8.67464 40.6693 8.51533 40.3555 8.44717C40.0417 8.37902 39.7148 8.40506 39.4158 8.52201C39.1168 8.63896 38.8589 8.84163 38.6747 9.10457C38.4904 9.36751 38.3879 9.67902 38.38 10C38.3733 10.2169 38.4102 10.433 38.4887 10.6353C38.5671 10.8377 38.6853 11.0222 38.8364 11.178C38.9875 11.3337 39.1684 11.4576 39.3683 11.5421C39.5682 11.6266 39.783 11.6701 40 11.67ZM30.41 11.67C30.7307 11.6699 31.0442 11.5752 31.3113 11.3978C31.5784 11.2204 31.7873 10.9682 31.9117 10.6727C32.0362 10.3772 32.0707 10.0515 32.011 9.73643C31.9513 9.42139 31.7999 9.13095 31.576 8.90148C31.352 8.67201 31.0653 8.51369 30.7518 8.44636C30.4383 8.37902 30.1119 8.40564 29.8134 8.5229C29.515 8.64017 29.2578 8.84284 29.0739 9.10558C28.8901 9.36832 28.7879 9.67944 28.78 10C28.7747 10.2174 28.8129 10.4337 28.8924 10.6361C28.9719 10.8385 29.0911 11.0229 29.243 11.1785C29.3949 11.3342 29.5764 11.4578 29.7768 11.5422C29.9773 11.6266 30.1925 11.6701 30.41 11.67ZM20.81 11.67C21.0341 11.6876 21.2594 11.6586 21.4718 11.585C21.6842 11.5113 21.8791 11.3945 22.0441 11.2418C22.2092 11.0892 22.3409 10.9041 22.431 10.6982C22.5211 10.4922 22.5676 10.2698 22.5676 10.045C22.5676 9.8202 22.5211 9.59783 22.431 9.39186C22.3409 9.18589 22.2092 9.00078 22.0441 8.84817C21.8791 8.69556 21.6842 8.57874 21.4718 8.50505C21.2594 8.43137 21.0341 8.40241 20.81 8.42001C20.401 8.45211 20.0192 8.63724 19.7407 8.93845C19.4622 9.23965 19.3076 9.63479 19.3076 10.045C19.3076 10.4552 19.4622 10.8504 19.7407 11.1516C20.0192 11.4528 20.401 11.6379 20.81 11.67ZM11.22 11.67C11.5406 11.6699 11.8542 11.5752 12.1213 11.3978C12.3884 11.2204 12.5973 10.9682 12.7217 10.6727C12.8462 10.3772 12.8807 10.0515 12.821 9.73643C12.7613 9.42139 12.6099 9.13095 12.386 8.90148C12.162 8.67201 11.8753 8.51369 11.5618 8.44636C11.2483 8.37902 10.9219 8.40564 10.6234 8.5229C10.325 8.64017 10.0677 8.84284 9.88393 9.10558C9.7001 9.36832 9.59785 9.67944 9.58999 10C9.58466 10.2174 9.62288 10.4337 9.7024 10.6361C9.78192 10.8385 9.90114 11.0229 10.053 11.1785C10.2049 11.3342 10.3864 11.4578 10.5868 11.5422C10.7873 11.6266 11.0025 11.6701 11.22 11.67ZM1.62 11.67C1.94107 11.6719 2.25555 11.5789 2.52397 11.4027C2.79239 11.2265 3.0028 10.9749 3.12878 10.6796C3.25477 10.3843 3.29073 10.0583 3.23214 9.74261C3.17355 9.42692 3.02303 9.13556 2.79947 8.9051C2.5759 8.67464 2.28925 8.51533 1.97549 8.44717C1.66172 8.37902 1.33481 8.40506 1.03578 8.52201C0.736755 8.63896 0.478935 8.84163 0.294662 9.10457C0.11039 9.36751 0.00787354 9.67902 -7.62939e-06 10C-0.00532532 10.2166 0.0325699 10.432 0.111473 10.6338C0.190376 10.8355 0.308701 11.0195 0.459534 11.175C0.610367 11.3305 0.79068 11.4543 0.989929 11.5393C1.18918 11.6243 1.40337 11.6687 1.62 11.67ZM78.38 3.25001C78.7028 3.25 79.0183 3.15414 79.2866 2.97459C79.5549 2.79504 79.7638 2.53987 79.8869 2.24145C80.0099 1.94302 80.0416 1.61478 79.9779 1.29832C79.9142 0.981857 79.758 0.691437 79.529 0.463882C79.3 0.236328 79.0087 0.0818787 78.6918 0.0201187C78.375 -0.0416412 78.0469 -0.00793457 77.7493 0.116974C77.4516 0.241882 77.1977 0.452354 77.0198 0.721718C76.8419 0.991081 76.748 1.30721 76.75 1.63C76.7526 2.06057 76.9255 2.4726 77.2309 2.77613C77.5363 3.07966 77.9494 3.25002 78.38 3.25001ZM68.78 3.25001C69.1032 3.25198 69.4197 3.15782 69.6893 2.97948C69.9589 2.80113 70.1694 2.54666 70.294 2.24841C70.4186 1.95016 70.4517 1.6216 70.3891 1.30449C70.3266 0.987373 70.1711 0.696014 69.9425 0.467453C69.714 0.238892 69.4226 0.0834503 69.1055 0.020874C68.7884 -0.0417023 68.4598 -0.00858307 68.1616 0.116028C67.8633 0.240639 67.6089 0.451111 67.4305 0.720688C67.2522 0.990265 67.158 1.30678 67.16 1.63C67.1626 2.05885 67.3341 2.46938 67.6374 2.77262C67.9406 3.07587 68.3512 3.24738 68.78 3.25001ZM59.19 3.25001C59.5128 3.25 59.8283 3.15414 60.0966 2.97459C60.3649 2.79504 60.5738 2.53987 60.6969 2.24145C60.8199 1.94302 60.8516 1.61478 60.7879 1.29832C60.7242 0.981857 60.568 0.691437 60.339 0.463882C60.11 0.236328 59.8187 0.0818787 59.5018 0.0201187C59.185 -0.0416412 58.8569 -0.00793457 58.5593 0.116974C58.2616 0.241882 58.0077 0.452354 57.8298 0.721718C57.6519 0.991081 57.558 1.30721 57.56 1.63C57.5626 2.06057 57.7355 2.4726 58.0409 2.77613C58.3463 3.07966 58.7594 3.25002 59.19 3.25001ZM49.59 3.25001C49.9144 3.25797 50.2338 3.16891 50.5073 2.99427C50.7807 2.81963 50.9959 2.56733 51.1251 2.26968C51.2543 1.97204 51.2918 1.64259 51.2327 1.32353C51.1736 1.00447 51.0206 0.71032 50.7933 0.478737C50.566 0.247154 50.2747 0.0886765 49.9568 0.0236053C49.6389 -0.0414658 49.3088 -0.01017 49.0088 0.11348C48.7088 0.237129 48.4526 0.44751 48.2728 0.717682C48.0931 0.987854 47.9981 1.30552 48 1.63C48.0025 2.05373 48.1698 2.45985 48.4667 2.76226C48.7635 3.06467 49.1664 3.23962 49.59 3.25001ZM40 3.25001C40.3232 3.25198 40.6397 3.15782 40.9093 2.97948C41.1789 2.80113 41.3894 2.54666 41.514 2.24841C41.6386 1.95016 41.6717 1.6216 41.6091 1.30449C41.5466 0.987373 41.3911 0.696014 41.1625 0.467453C40.934 0.238892 40.6426 0.0834503 40.3255 0.020874C40.0084 -0.0417023 39.6798 -0.00858307 39.3816 0.116028C39.0833 0.240639 38.8289 0.451111 38.6505 0.720688C38.4722 0.990265 38.378 1.30678 38.38 1.63C38.38 2.05965 38.5507 2.47171 38.8545 2.77552C39.1583 3.07933 39.5703 3.25001 40 3.25001ZM30.41 3.25001C30.7328 3.25 31.0483 3.15414 31.3166 2.97459C31.5849 2.79504 31.7938 2.53987 31.9168 2.24145C32.0399 1.94302 32.0716 1.61478 32.0079 1.29832C31.9442 0.981857 31.788 0.691437 31.559 0.463882C31.33 0.236328 31.0387 0.0818787 30.7218 0.0201187C30.405 -0.0416412 30.0769 -0.00793457 29.7793 0.116974C29.4816 0.241882 29.2277 0.452354 29.0498 0.721718C28.8719 0.991081 28.778 1.30721 28.78 1.63C28.7826 2.06057 28.9555 2.4726 29.2609 2.77613C29.5663 3.07966 29.9794 3.25002 30.41 3.25001ZM20.81 3.25001C21.1332 3.25198 21.4497 3.15782 21.7193 2.97948C21.9889 2.80113 22.1994 2.54666 22.324 2.24841C22.4486 1.95016 22.4817 1.6216 22.4191 1.30449C22.3565 0.987373 22.2011 0.696014 21.9725 0.467453C21.744 0.238892 21.4526 0.0834503 21.1355 0.020874C20.8184 -0.0417023 20.4898 -0.00858307 20.1916 0.116028C19.8933 0.240639 19.6389 0.451111 19.4605 0.720688C19.2822 0.990265 19.188 1.30678 19.19 1.63C19.1926 2.05885 19.3641 2.46938 19.6674 2.77262C19.9706 3.07587 20.3812 3.24738 20.81 3.25001ZM11.22 3.25001C11.5428 3.25 11.8583 3.15414 12.1266 2.97459C12.3949 2.79504 12.6038 2.53987 12.7269 2.24145C12.8499 1.94302 12.8816 1.61478 12.8179 1.29832C12.7542 0.981857 12.598 0.691437 12.369 0.463882C12.14 0.236328 11.8487 0.0818787 11.5318 0.0201187C11.215 -0.0416412 10.8869 -0.00793457 10.5893 0.116974C10.2916 0.241882 10.0377 0.452354 9.85983 0.721718C9.68192 0.991081 9.58801 1.30721 9.58999 1.63C9.59263 2.06057 9.76553 2.4726 10.0709 2.77613C10.3763 3.07966 10.7894 3.25002 11.22 3.25001ZM1.62 3.25001C1.94322 3.25198 2.25974 3.15782 2.52931 2.97948C2.79889 2.80113 3.00936 2.54666 3.13397 2.24841C3.25858 1.95016 3.2917 1.6216 3.22913 1.30449C3.16655 0.987373 3.01111 0.696014 2.78255 0.467453C2.55399 0.238892 2.26263 0.0834503 1.94551 0.020874C1.6284 -0.0417023 1.29984 -0.00858307 1.00159 0.116028C0.703339 0.240639 0.448868 0.451111 0.270523 0.720688C0.0921783 0.990265 -0.00198364 1.30678 -7.62939e-06 1.63C0.00261688 2.05885 0.174133 2.46938 0.477379 2.77262C0.780624 3.07587 1.19115 3.24738 1.62 3.25001Z" fill="#7F0443"/>
</g>
<defs>
<clipPath id="clip0_53_114">
<rect width="80" height="79" fill="white" transform="matrix(-1 0 0 -1 80 79)"/>
</clipPath>
</defs>
</svg>
