<svg width="109" height="109" viewBox="0 0 109 109" fill="none" xmlns="http://www.w3.org/2000/svg">
<g style="mix-blend-mode:overlay" opacity="0.4">
<path d="M46.0688 16.7C49.4402 9.86879 59.1813 9.8688 62.5527 16.7L68.1338 28.0085C69.4726 30.7212 72.0605 32.6014 75.0541 33.0364L87.5338 34.8498C95.0725 35.9453 98.0826 45.2096 92.6276 50.527L83.5972 59.3294C81.431 61.4409 80.4425 64.4832 80.9539 67.4647L83.0857 79.894C84.3734 87.4022 76.4927 93.1279 69.7499 89.583L58.5877 83.7147C55.9101 82.307 52.7114 82.307 50.0338 83.7147L38.8716 89.583C32.1288 93.1279 24.2481 87.4022 25.5358 79.894L27.6676 67.4647C28.179 64.4832 27.1905 61.4409 25.0243 59.3294L15.9939 50.5269C10.5389 45.2096 13.549 35.9453 21.0877 34.8498L33.5674 33.0364C36.561 32.6014 39.1489 30.7212 40.4877 28.0085L46.0688 16.7Z" fill="white"/>
</g>
</svg>
